<svg width="1513" height="104" viewBox="0 0 1513 104" fill="none" xmlns="http://www.w3.org/2000/svg">
<g clip-path="url(#clip0_135_12)">
<path d="M1625 23.0971C1625 35.7996 1614.7 46.1971 1602 46.1971L868.578 46.1971C864.28 46.1971 860.068 47.4013 856.42 49.6732L785.129 94.0678C778.232 98.363 769.58 98.7001 762.369 94.9547L673.487 48.7863C670.212 47.0852 666.575 46.1971 662.885 46.1971L-76.9978 46.1971L-502.498 46.1971L-925.923 15.5473C-927.303 15.4473 -928.69 15.4722 -930.066 15.6216L-1351.02 61.3275C-1352.67 61.5067 -1354.33 61.5067 -1355.98 61.3275L-1774.48 15.8874C-1777.46 15.5637 -1780.48 15.8263 -1783.36 16.6605L-2201.36 137.69C-2203.44 138.292 -2205.6 138.597 -2207.76 138.597L-2630 138.597L-3053.43 92.6216C-3054.81 92.4722 -3056.19 92.4473 -3057.57 92.5473L-3477.69 122.958C-3479.89 123.117 -3482.09 122.96 -3484.24 122.494L-3904.09 31.3209C-3905.69 30.9727 -3907.33 30.7971 -3908.97 30.7971L-4329.53 30.7971C-4331.17 30.7971 -4332.81 30.9727 -4334.41 31.3209L-4754.26 122.494C-4756.41 122.96 -4758.61 123.117 -4760.8 122.958L-5183 92.3971L-5604.79 31.3336C-5607.25 30.9783 -5609.74 31.0223 -5612.18 31.4639L-6032.38 107.504C-6033.46 107.699 -6034.55 107.817 -6035.64 107.857L-6459.5 123.197L-6881.29 153.729C-6883.75 153.906 -6886.21 153.689 -6888.6 153.084L-7308.53 46.6951C-7309.84 46.3637 -7311.17 46.1481 -7312.52 46.0507L-7732.29 15.6654C-7734.75 15.4877 -7737.21 15.7052 -7739.6 16.3098L-8157.07 122.076C-8159.99 122.816 -8163.03 122.975 -8166.02 122.543L-8567.29 64.4497C-8578.61 62.8121 -8587 53.1166 -8587 41.687V22.9971C-8587 10.2945 -8576.7 -0.00292659 -8564 -0.00292659L-8161.5 -0.00292659L-7736 -0.00292659L-7310.5 -0.00292659L-6885 -0.00292659L-6459.5 -0.00292659L-6034 -0.00292659L-5608.5 -0.00292659L-5183 -0.00292659L-4757.5 -0.00292659L-4332 -0.00292659L-3906.5 -0.00292659L-3481 -0.00292659L-3055.5 -0.00292659L-2630 -0.00292659L-2204.5 -0.00292659L-1779 -0.00292659L-1353.5 -0.00292659L-927.998 -0.00292659L-502.498 -0.00292659L-76.9978 -0.00292659L348.502 -0.00292659L774.002 -0.00292659L1199.5 -0.00292659L1602 -0.00292659C1614.7 -0.00292659 1625 10.3945 1625 23.0971Z" fill="url(#paint0_linear_135_12)"/>
</g>
<defs>
<linearGradient id="paint0_linear_135_12" x1="1608.82" y1="-11.191" x2="1608.82" y2="142.809" gradientUnits="userSpaceOnUse">
<stop stop-color="#5B44A4"/>
<stop offset="1" stop-color="#5E48A6"/>
</linearGradient>
<clipPath id="clip0_135_12">
<rect width="1513" height="104" fill="white" transform="translate(0.00195312 -0.00244141)"/>
</clipPath>
</defs>
</svg>
