<svg width="323" height="43" viewBox="0 0 323 43" fill="none" xmlns="http://www.w3.org/2000/svg">
<path d="M14.872 42.62C12.1853 42.62 9.64333 42.4133 7.246 42C4.84867 41.5453 2.80267 40.9253 1.108 40.14V30.53C2.968 31.398 5.03467 32.1007 7.308 32.638C9.58133 33.1753 11.71 33.444 13.694 33.444C15.7607 33.444 17.3107 33.2787 18.344 32.948C19.4187 32.576 19.956 31.77 19.956 30.53C19.956 29.662 19.646 28.98 19.026 28.484C18.4473 27.988 17.5173 27.5333 16.236 27.12C14.996 26.7067 13.3633 26.19 11.338 25.57C8.65133 24.702 6.52267 23.7513 4.952 22.718C3.38133 21.6847 2.24467 20.424 1.542 18.936C0.880667 17.448 0.55 15.6293 0.55 13.48C0.55 9.55333 1.93467 6.57733 4.704 4.552C7.51467 2.48533 11.6687 1.452 17.166 1.452C19.3567 1.452 21.6093 1.638 23.924 2.01C26.28 2.382 28.1813 2.79533 29.628 3.25V12.922C27.6853 12.1367 25.8253 11.5787 24.048 11.248C22.2707 10.9173 20.5967 10.752 19.026 10.752C17.2073 10.752 15.6573 10.8967 14.376 11.186C13.0947 11.4753 12.454 12.2193 12.454 13.418C12.454 14.4513 12.9913 15.216 14.066 15.712C15.182 16.1667 17.1453 16.766 19.956 17.51C23.2213 18.378 25.7013 19.432 27.396 20.672C29.132 21.912 30.31 23.3587 30.93 25.012C31.55 26.624 31.86 28.4633 31.86 30.53C31.86 34.1673 30.4547 37.102 27.644 39.334C24.8333 41.5247 20.576 42.62 14.872 42.62ZM41.1164 42L33.3664 12.612H44.6504L48.1224 27.182L51.5324 16.828V12.612H60.0884L64.1804 27.182L67.5284 12.612H78.8124L71.0624 42H60.6464L56.1824 28.67L51.7184 42H41.1164ZM96.5618 42.62C93.1312 42.62 90.0932 42.062 87.4478 40.946C84.8438 39.7887 82.7978 38.0733 81.3098 35.8C79.8632 33.5267 79.1398 30.716 79.1398 27.368C79.1398 22.6973 80.4625 18.9773 83.1078 16.208C85.7532 13.3973 89.7005 11.992 94.9498 11.992C99.7445 11.992 103.485 13.2113 106.172 15.65C108.9 18.0887 110.264 21.416 110.264 25.632V30.778H89.8658C90.4032 32.3487 91.4572 33.4647 93.0278 34.126C94.5985 34.7873 96.7272 35.118 99.4138 35.118C101.109 35.118 102.803 34.9733 104.498 34.684C106.234 34.3533 107.619 33.9813 108.652 33.568V40.574C105.759 41.938 101.729 42.62 96.5618 42.62ZM89.8658 24.454H100.22V23.4C100.22 22.2427 99.8478 21.292 99.1038 20.548C98.4012 19.804 97.1405 19.432 95.3218 19.432C93.2965 19.432 91.8705 19.866 91.0438 20.734C90.2585 21.5607 89.8658 22.8007 89.8658 24.454ZM134.181 42.62C132.279 42.62 130.605 42.372 129.159 41.876C127.753 41.3387 126.451 40.6153 125.253 39.706L124.695 42H114.589V0.211998H126.245V13.666C127.237 13.1287 128.394 12.7153 129.717 12.426C131.081 12.1367 132.445 11.992 133.809 11.992C138.19 11.992 141.621 13.17 144.101 15.526C146.622 17.8407 147.883 21.6847 147.883 27.058C147.883 32.3073 146.643 36.2133 144.163 38.776C141.683 41.3387 138.355 42.62 134.181 42.62ZM130.833 34.188C132.651 34.188 133.953 33.6507 134.739 32.576C135.565 31.46 135.979 29.662 135.979 27.182C135.979 24.6607 135.545 22.904 134.677 21.912C133.85 20.92 132.569 20.424 130.833 20.424C128.931 20.424 127.402 20.9407 126.245 21.974V32.39C127.526 33.5887 129.055 34.188 130.833 34.188ZM172.359 42.62C165.125 42.62 159.607 40.8427 155.805 37.288C152.002 33.7333 150.101 28.7113 150.101 22.222C150.101 15.526 151.961 10.4007 155.681 6.846C159.401 3.25 164.939 1.452 172.297 1.452C174.777 1.452 176.988 1.638 178.931 2.01C180.873 2.382 182.733 2.89867 184.511 3.56V13.728C180.956 12.1573 177.153 11.372 173.103 11.372C169.341 11.372 166.551 12.24 164.733 13.976C162.914 15.6707 162.005 18.4193 162.005 22.222C162.005 25.942 162.955 28.6287 164.857 30.282C166.799 31.894 169.589 32.7 173.227 32.7C175.211 32.7 177.133 32.514 178.993 32.142C180.894 31.77 182.775 31.1913 184.635 30.406V40.636C182.857 41.256 180.977 41.7313 178.993 42.062C177.05 42.434 174.839 42.62 172.359 42.62ZM204.935 42.62C199.066 42.62 194.726 41.318 191.915 38.714C189.146 36.11 187.761 32.3073 187.761 27.306C187.761 22.346 189.166 18.564 191.977 15.96C194.788 13.3147 199.107 11.992 204.935 11.992C210.804 11.992 215.144 13.3147 217.955 15.96C220.807 18.564 222.233 22.346 222.233 27.306C222.233 32.3073 220.828 36.11 218.017 38.714C215.206 41.318 210.846 42.62 204.935 42.62ZM204.935 34.126C206.836 34.126 208.2 33.5887 209.027 32.514C209.895 31.4393 210.329 29.7033 210.329 27.306C210.329 24.95 209.895 23.2347 209.027 22.16C208.2 21.044 206.836 20.486 204.935 20.486C203.075 20.486 201.732 21.044 200.905 22.16C200.078 23.2347 199.665 24.95 199.665 27.306C199.665 29.7033 200.078 31.4393 200.905 32.514C201.732 33.5887 203.075 34.126 204.935 34.126ZM239.063 42.62C236.293 42.62 233.875 42.1653 231.809 41.256C229.783 40.3053 228.192 38.776 227.035 36.668C225.919 34.56 225.361 31.7493 225.361 28.236C225.361 24.64 226.001 21.6433 227.283 19.246C228.564 16.8487 230.279 15.0507 232.429 13.852C234.578 12.612 236.913 11.992 239.435 11.992C240.799 11.992 242.142 12.1367 243.465 12.426C244.829 12.7153 246.007 13.1287 246.999 13.666V0.211998H258.655V42H248.549L247.991 39.706C246.833 40.6153 245.531 41.3387 244.085 41.876C242.679 42.372 241.005 42.62 239.063 42.62ZM242.411 34.188C244.188 34.188 245.717 33.5887 246.999 32.39V21.974C245.841 20.9407 244.312 20.424 242.411 20.424C240.881 20.424 239.641 21.106 238.691 22.47C237.74 23.834 237.265 25.7767 237.265 28.298C237.265 30.778 237.678 32.39 238.505 33.134C239.331 33.8367 240.633 34.188 242.411 34.188ZM279.837 42.62C276.407 42.62 273.369 42.062 270.723 40.946C268.119 39.7887 266.073 38.0733 264.585 35.8C263.139 33.5267 262.415 30.716 262.415 27.368C262.415 22.6973 263.738 18.9773 266.383 16.208C269.029 13.3973 272.976 11.992 278.225 11.992C283.02 11.992 286.761 13.2113 289.447 15.65C292.175 18.0887 293.539 21.416 293.539 25.632V30.778H273.141C273.679 32.3487 274.733 33.4647 276.303 34.126C277.874 34.7873 280.003 35.118 282.689 35.118C284.384 35.118 286.079 34.9733 287.773 34.684C289.509 34.3533 290.894 33.9813 291.927 33.568V40.574C289.034 41.938 285.004 42.62 279.837 42.62ZM273.141 24.454H283.495V23.4C283.495 22.2427 283.123 21.292 282.379 20.548C281.677 19.804 280.416 19.432 278.597 19.432C276.572 19.432 275.146 19.866 274.319 20.734C273.534 21.5607 273.141 22.8007 273.141 24.454ZM295.413 42V35.614L307.751 21.54H295.847V12.612H322.569V19.184L310.603 33.072H323.003V42H295.413Z" fill="url(#paint0_linear_83_6)"/>
<defs>
<linearGradient id="paint0_linear_83_6" x1="9.1875" y1="54.0833" x2="335.193" y2="61.6162" gradientUnits="userSpaceOnUse">
<stop stop-color="#55C1FF"/>
<stop offset="1" stop-color="#9D4EDD"/>
</linearGradient>
</defs>
</svg>
